# 3ds Max Wavefront OBJ Exporter v0.97b - (c)2007 guruware
# File Created: 01.03.2018 10:09:16

mtllib Stone3.mtl

#
# object Icosphere
#

v  -16290.8037 72.6804 -5244.7217
v  -16793.7910 -402.5215 -5837.2744
v  -16144.6152 16.3677 -6003.6460
v  -17545.5156 -250.6745 -5319.0957
v  -17467.5293 -373.7010 -6107.0073
v  -16583.2383 584.3211 -6765.2686
v  -17505.1543 847.9964 -6485.1909
v  -16986.7520 1152.9094 -6092.2393
v  -16825.8672 1069.2820 -5492.7578
v  -16237.8506 637.9179 -6237.5684
v  -17545.6973 1181.3323 -5545.1094
v  -17978.9160 641.4323 -6119.7134
v  -17647.4492 783.8690 -5166.6318
v  -16596.1348 630.4474 -5142.8696
v  -16371.4912 73.2881 -6653.8345
v  -16878.6816 45.8563 -6873.4517
v  -17623.0996 47.1815 -6709.3330
v  -18023.7363 21.0045 -6272.4014
v  -18090.4219 40.7830 -5632.9048
v  -17630.5254 40.7816 -4999.9121
v  -17009.1172 23.1475 -4864.3638
# 21 vertices

vn 0.5646 -0.8080 0.1687
vn -0.0997 -0.9846 0.1439
vn 0.0277 0.7717 -0.6354
vn 0.5616 0.8267 -0.0354
vn 0.4699 0.7928 -0.3881
vn -0.2788 0.9013 -0.3316
vn -0.5649 0.7697 -0.2973
vn -0.8646 0.4444 0.2343
vn 0.1461 0.9844 0.0981
vn 0.0530 0.6815 0.7299
vn 0.0771 0.6459 0.7595
vn 0.7597 0.5992 0.2527
vn 0.9445 0.0182 -0.3280
vn 0.8071 0.2145 -0.5501
vn -0.1989 0.2968 -0.9340
vn -0.2054 0.2917 -0.9342
vn -0.6607 0.2910 -0.6920
vn -0.9895 0.0976 -0.1062
vn -0.8925 0.3722 0.2548
vn -0.2027 0.2100 0.9565
vn 0.0370 0.3957 0.9176
vn 0.8618 0.4197 0.2849
vn 0.3987 -0.0346 -0.9164
vn -0.7264 0.2133 -0.6533
vn -0.8039 0.1127 0.5840
vn -0.6074 -0.6605 0.4413
vn 0.4611 0.0912 0.8827
vn 0.9631 0.2085 0.1701
vn 0.2223 -0.8880 -0.4025
vn 0.1224 -0.9072 -0.4026
vn -0.1221 -0.8281 -0.5471
vn -0.4288 -0.7888 -0.4404
vn -0.5716 -0.8198 -0.0342
vn -0.5071 -0.8578 0.0838
vn 0.4816 -0.8424 -0.2418
vn -0.1613 -0.7498 0.6417
vn 0.1060 -0.9022 0.4182
vn 0.2900 -0.8516 0.4368
# 38 vertex normals

g Icosphere
usemtl Material_004
s off
f 1//1 2//1 3//1 
f 2//2 4//2 5//2 
f 6//3 7//3 8//3 
f 9//4 10//4 8//4 
f 10//5 6//5 8//5 
f 7//6 11//6 8//6 
f 7//7 12//7 11//7 
f 12//8 13//8 11//8 
f 11//9 9//9 8//9 
f 11//10 13//10 9//10 
f 13//11 14//11 9//11 
f 14//12 10//12 9//12 
f 3//13 15//13 10//13 
f 15//14 6//14 10//14 
f 16//15 7//15 6//15 
f 16//16 17//16 7//16 
f 17//17 12//17 7//17 
f 18//18 19//18 12//18 
f 19//19 13//19 12//19 
f 20//20 21//20 13//20 
f 21//21 14//21 13//21 
f 1//22 10//22 14//22 
f 15//23 16//23 6//23 
f 17//24 18//24 12//24 
f 19//25 20//25 13//25 
f 19//26 4//26 20//26 
f 21//27 1//27 14//27 
f 1//28 3//28 10//28 
f 2//29 16//29 15//29 
f 2//30 5//30 16//30 
f 5//31 17//31 16//31 
f 5//32 18//32 17//32 
f 5//33 19//33 18//33 
f 5//34 4//34 19//34 
f 3//35 2//35 15//35 
f 4//36 21//36 20//36 
f 4//37 2//37 21//37 
f 2//38 1//38 21//38 
# 0 polygons - 38 triangles

#
# object Sphere
#

v  -19391.1465 510.1087 -5650.4751
v  -19020.3086 1094.2950 -5393.7256
v  -18172.1914 519.3171 -5495.4980
v  -18278.3145 -27.7630 -5545.9014
v  -18611.0801 1322.5281 -4958.0615
v  -17527.2695 511.8556 -5028.0435
v  -18880.1641 1656.0881 -4339.3623
v  -17294.9922 717.2269 -4397.3174
v  -17142.5371 -15.4840 -4352.5850
v  -17562.8457 -106.4342 -5009.6401
v  -17291.7793 -342.0261 -3597.8447
v  -17769.7852 -588.4320 -4623.8638
v  -17484.0996 960.3724 -3916.4966
v  -17322.6094 565.6335 -3063.8882
v  -17057.5508 310.2923 -3958.1619
v  -17282.3359 10.3233 -3084.9375
v  -18111.5801 -819.0223 -4078.7922
v  -18545.7402 -861.0228 -3299.0745
v  -18110.2070 -530.1254 -2760.4224
v  -17712.8516 1019.6770 -3299.4949
v  -19022.1758 1473.6954 -3473.4346
v  -17918.9258 191.6841 -2373.0408
v  -17925.2539 -145.0537 -2490.2920
v  -18741.3926 1319.7252 -2794.1287
v  -18389.8047 1060.7544 -2563.1958
v  -18823.1191 733.6442 -2188.0625
v  -19448.6953 -38.8503 -1995.5048
v  -19310.4883 1155.2844 -2501.7769
v  -19386.6797 -380.0856 -2186.8699
v  -19683.7168 -767.3193 -3131.1975
v  -19587.0703 750.9569 -2207.3357
v  -19999.0039 -548.2010 -2288.6895
v  -19532.2109 1640.7419 -4019.9827
v  -20423.4629 -274.5799 -2312.8330
v  -20303.8984 820.4345 -2696.5706
v  -19635.5137 -858.9773 -4343.6987
v  -18912.0566 -928.8002 -3676.0771
v  -20604.0000 401.7820 -2558.2002
v  -20862.1543 -123.1459 -2948.8235
v  -20815.0195 -387.8779 -3500.7937
v  -20360.5586 1252.4098 -4002.7898
v  -20345.9531 -591.7042 -2711.9883
v  -20918.2715 551.7602 -4179.1318
v  -20938.1211 335.3687 -4534.6689
v  -20589.6738 7.1240 -4962.6489
v  -20603.7090 398.2279 -5058.2021
v  -20711.8027 827.5348 -4691.3726
v  -19845.8203 1527.3246 -4674.8452
v  -19832.8945 1218.0718 -5172.3174
v  -20245.8145 -591.4142 -4499.7900
v  -19601.7676 -526.3883 -5161.4756
v  -18780.1309 -878.5674 -4528.8193
v  -19307.7949 1691.9796 -4577.4351
v  -19397.5742 -47.7013 -5588.7427
v  -18610.6719 -418.3038 -5387.9712
# 55 vertices

vn 0.1162 0.3369 -0.9344
vn 0.1253 0.0669 -0.9899
vn 0.3573 0.6464 -0.6742
vn 0.4493 0.6533 -0.6094
vn 0.4882 0.8391 -0.2400
vn 0.9069 0.1650 -0.3877
vn 0.8447 -0.0644 -0.5314
vn 0.7027 -0.6931 -0.1609
vn 0.8544 0.5140 0.0761
vn 0.8201 0.5664 0.0814
vn 0.9488 -0.3115 0.0528
vn 0.9616 0.0596 0.2680
vn 0.4127 -0.8925 0.1817
vn 0.6053 -0.6612 0.4431
vn 0.2889 0.9261 0.2425
vn 0.7488 0.0292 0.6622
vn 0.6893 -0.2497 0.6800
vn 0.3166 0.9449 0.0833
vn 0.4100 0.8505 0.3295
vn 0.4079 0.4005 0.8205
vn 0.2315 0.0547 0.9713
vn 0.1203 0.7467 0.6542
vn -0.0193 -0.9229 0.3845
vn -0.0069 0.5918 0.8061
vn -0.1356 0.9527 0.2720
vn 0.2018 -0.9268 0.3166
vn 0.0842 0.9722 0.2186
vn -0.3446 0.1864 0.9201
vn -0.0102 -0.4905 0.8714
vn -0.3476 0.9166 0.1972
vn -0.1580 -0.9851 0.0682
vn -0.8247 -0.0151 0.5653
vn -0.6518 -0.7040 0.2820
vn -0.3993 0.8652 0.3034
vn -0.3792 -0.9252 -0.0136
vn -0.9987 0.0088 0.0504
vn -0.8134 -0.5176 -0.2653
vn -0.8225 -0.1627 -0.5449
vn -0.8336 0.2223 -0.5058
vn -0.5564 0.6991 -0.4491
vn -0.4819 -0.6923 -0.5371
vn -0.0368 -0.9972 -0.0644
vn -0.4411 0.2968 -0.8470
vn -0.0417 0.7991 -0.5998
vn -0.1615 0.4812 -0.8616
vn -0.1030 -0.9199 -0.3784
vn 0.0400 -0.1104 -0.9931
vn 0.0422 -0.4052 -0.9133
vn -0.0123 -0.8804 -0.4741
vn 0.2755 0.8911 -0.3606
vn 0.2119 -0.8782 -0.4287
vn 0.2467 -0.9383 -0.2423
vn 0.5909 -0.0497 -0.8052
vn 0.4216 -0.6528 -0.6294
vn 0.1306 -0.9914 -0.0107
vn 0.5222 0.7354 -0.4318
vn 0.7087 -0.6006 -0.3702
vn 0.4893 0.8405 -0.2326
vn 0.9243 0.1715 -0.3408
vn 0.2613 -0.3821 0.8864
vn 0.5184 -0.8544 -0.0363
vn 0.4274 0.9012 0.0718
vn 0.9539 -0.2553 0.1578
vn 0.6935 0.6948 0.1903
vn 0.4159 -0.8854 0.2076
vn 0.6032 -0.6315 0.4872
vn 0.5420 0.7040 0.4590
vn 0.5417 0.4490 0.7106
vn -0.7785 0.5893 0.2158
vn 0.2536 -0.6342 0.7304
vn 0.1026 -0.8824 0.4591
vn 0.1180 0.6769 0.7265
vn -0.0186 0.2560 0.9665
vn -0.3569 0.6970 0.6219
vn -0.0476 -0.9740 0.2213
vn -0.2347 -0.2819 0.9303
vn -0.4347 0.5479 0.7148
vn -0.3853 0.2221 0.8957
vn -0.1823 0.8798 0.4390
vn -0.4945 -0.7248 0.4798
vn -0.1279 -0.9705 0.2045
vn -0.9301 0.3024 0.2083
vn -0.7620 -0.5709 0.3056
vn -0.3761 0.9264 0.0197
vn -0.2171 -0.9740 0.0650
vn -0.9853 -0.1708 -0.0022
vn -0.3933 -0.9187 -0.0369
vn -0.7844 0.6200 0.0176
vn -0.9147 0.3659 -0.1717
vn -0.7213 -0.6326 -0.2821
vn -0.4440 -0.1500 -0.8834
vn -0.6187 0.7694 -0.1591
vn -0.5738 0.4437 -0.6884
vn 0.0266 0.9944 0.1021
vn -0.2918 -0.8818 -0.3706
vn -0.4212 -0.4973 -0.7585
vn -0.1611 0.8363 -0.5241
vn -0.1051 -0.6369 -0.7638
vn 0.1325 0.8214 -0.5548
# 99 vertex normals

g Sphere
usemtl Material_001
s off
f 22//39 23//39 24//39 
f 22//40 24//40 25//40 
f 23//41 26//41 24//41 
f 24//42 26//42 27//42 
f 26//43 28//43 29//43 
f 27//44 29//44 30//44 
f 27//45 30//45 31//45 
f 30//46 32//46 33//46 
f 34//47 35//47 29//47 
f 29//48 35//48 36//48 
f 36//49 32//49 30//49 
f 35//50 37//50 36//50 
f 38//51 32//51 39//51 
f 32//52 37//52 40//52 
f 41//53 28//53 42//53 
f 35//54 43//54 37//54 
f 37//55 43//55 44//55 
f 42//56 45//56 41//56 
f 45//57 46//57 41//57 
f 46//58 47//58 43//58 
f 47//59 48//59 43//59 
f 46//60 45//60 49//60 
f 39//61 50//61 51//61 
f 47//62 49//62 52//62 
f 45//63 42//63 49//63 
f 50//64 53//64 51//64 
f 42//65 28//65 54//65 
f 48//66 52//66 55//66 
f 48//67 53//67 50//67 
f 49//68 42//68 56//68 
f 51//69 57//69 58//69 
f 59//70 60//70 55//70 
f 60//71 61//71 55//71 
f 54//72 62//72 56//72 
f 63//73 61//73 57//73 
f 64//74 65//74 60//74 
f 65//75 66//75 61//75 
f 65//76 67//76 66//76 
f 68//77 67//77 65//77 
f 69//78 70//78 68//78 
f 71//79 66//79 72//79 
f 58//80 57//80 73//80 
f 70//81 22//81 67//81 
f 70//82 74//82 23//82 
f 70//83 23//83 22//83 
f 72//84 73//84 57//84 
f 75//85 22//85 25//85 
f 76//86 75//86 25//86 
f 72//87 76//87 73//87 
f 26//88 74//88 28//88 
f 76//89 33//89 73//89 
f 73//90 33//90 38//90 
f 31//91 25//91 24//91 27//91 
f 33//92 76//92 25//92 31//92 
f 58//93 73//93 38//93 39//93 
f 27//94 26//94 29//94 
f 31//95 30//95 33//95 
f 29//96 28//96 34//96 
f 30//97 29//97 36//97 
f 48//98 50//98 44//98 43//98 
f 33//99 32//99 38//99 
f 34//100 28//100 41//100 
f 32//101 36//101 37//101 
f 34//102 41//102 35//102 
f 39//103 32//103 40//103 
f 40//104 37//104 44//104 
f 41//105 46//105 35//105 
f 35//106 46//106 43//106 
f 64//107 59//107 56//107 62//107 
f 40//108 44//108 50//108 
f 39//109 40//109 50//109 
f 46//110 49//110 47//110 
f 47//111 52//111 48//111 
f 52//112 49//112 56//112 
f 39//113 51//113 58//113 
f 48//114 55//114 53//114 
f 52//115 56//115 59//115 
f 52//116 59//116 55//116 
f 42//117 54//117 56//117 
f 53//118 55//118 63//118 
f 51//119 53//119 63//119 
f 59//120 64//120 60//120 
f 63//121 55//121 61//121 
f 69//122 62//122 54//122 74//122 
f 51//123 63//123 57//123 
f 60//124 65//124 61//124 
f 57//125 61//125 71//125 
f 62//126 68//126 64//126 
f 64//127 68//127 65//127 
f 61//128 66//128 71//128 
f 22//129 75//129 66//129 67//129 
f 62//130 69//130 68//130 
f 68//131 70//131 67//131 
f 54//132 28//132 74//132 
f 57//133 71//133 72//133 
f 72//134 66//134 75//134 
f 69//135 74//135 70//135 
f 72//136 75//136 76//136 
f 23//137 74//137 26//137 
# 7 polygons - 92 triangles

#
# object Icosphere_001
#

v  -20870.0313 575.5720 -2332.0039
v  -21697.5469 730.2411 -2033.9650
v  -21135.5820 949.7550 -1889.0894
v  -20931.5742 786.8046 -1360.3091
v  -20642.7363 610.8436 -1984.7290
v  -21550.8945 930.9926 -1419.3901
v  -20580.6074 199.0825 -1498.5754
v  -20848.4980 247.9435 -2393.0151
v  -21733.6074 204.1552 -2169.0869
v  -21861.8965 217.8744 -1586.8053
v  -21556.5430 130.1018 -1203.9961
v  -21150.2988 206.2686 -1081.0352
v  -21243.6895 -138.8846 -1776.4364
# 13 vertices

vn -0.1087 0.7263 -0.6788
vn 0.5706 0.8206 0.0327
vn 0.4699 0.7928 -0.3881
vn -0.3020 0.9251 -0.2301
vn 0.2017 0.9552 0.2165
vn 0.9350 -0.2026 -0.2911
vn 0.8190 0.1566 -0.5520
vn -0.3091 0.1544 -0.9384
vn -0.2490 0.2569 -0.9338
vn -0.9687 0.1220 -0.2163
vn -0.9205 0.3789 0.0959
vn -0.3229 0.2479 0.9134
vn 0.0138 0.4292 0.9031
vn 0.8535 0.4464 0.2690
vn -0.7492 0.1769 0.6382
vn 0.5847 0.1621 0.7949
vn -0.1057 -0.8105 -0.5762
vn -0.5192 -0.8495 -0.0944
vn -0.4553 -0.8754 0.1625
vn 0.5098 -0.8371 -0.1984
vn 0.0348 -0.8970 0.4406
vn 0.2796 -0.8744 0.3965
# 22 vertex normals

g Icosphere_001
usemtl Material_003
s off
f 77//138 78//138 79//138 
f 80//139 81//139 79//139 
f 81//140 77//140 79//140 
f 78//141 82//141 79//141 
f 82//142 80//142 79//142 
f 83//143 84//143 81//143 
f 84//144 77//144 81//144 
f 84//145 78//145 77//145 
f 84//146 85//146 78//146 
f 85//147 86//147 78//147 
f 86//148 82//148 78//148 
f 87//149 88//149 82//149 
f 88//150 80//150 82//150 
f 83//151 81//151 80//151 
f 86//152 87//152 82//152 
f 88//153 83//153 80//153 
f 89//154 85//154 84//154 
f 89//155 86//155 85//155 
f 89//156 87//156 86//156 
f 83//157 89//157 84//157 
f 87//158 89//158 88//158 
f 89//159 83//159 88//159 
# 0 polygons - 22 triangles

#
# object Sphere_001
#

v  -19198.2676 341.1512 -1821.0083
v  -19560.5957 1162.4028 -2641.4502
v  -19942.1699 607.5427 -2027.4683
v  -19785.0996 108.9624 -1296.4133
v  -20456.3770 1055.5641 -1898.9705
v  -19293.7324 1893.1323 -2913.3240
v  -20622.5527 977.3837 -1229.0261
v  -20309.5332 434.7083 -1267.9257
v  -20506.1582 1150.9385 -638.0665
v  -20016.9980 211.1169 -453.4533
v  -20298.5996 1824.9663 -1938.6505
v  -20454.3672 1769.5264 -1334.2301
v  -19824.3379 852.2933 35.9099
v  -20121.0098 1778.1129 -662.0812
v  -19682.5957 2407.5420 -1664.1436
v  -19172.5879 1881.5486 -418.5607
v  -18948.6758 1522.1763 -48.2161
v  -18683.6367 1443.7325 -34.9906
v  -19120.6582 2384.5798 -1504.4304
v  -18546.9629 2044.9988 -1261.5071
v  -18904.4707 162.6726 -560.7732
v  -18294.1953 1133.2958 -557.0316
v  -18622.8418 1770.2925 -2291.0537
v  -18273.3887 1078.9982 -1800.2058
v  -18433.5645 629.8223 -1574.8718
v  -18868.0605 1414.9708 -2714.5317
# 26 vertices

vn -0.0675 -0.5748 -0.8155
vn -0.1615 -0.8335 -0.5284
vn -0.4805 -0.1594 -0.8624
vn -0.4465 0.2043 -0.8711
vn -0.8608 -0.4596 -0.2184
vn -0.6948 -0.4943 0.5224
vn -0.8598 0.2987 -0.4141
vn -0.8720 0.2864 -0.3969
vn -0.9713 0.2147 0.1021
vn -0.4924 -0.4081 0.7688
vn -0.8021 0.4401 0.4038
vn -0.3018 0.6821 -0.6661
vn -0.2241 0.9063 0.3582
vn -0.0057 -0.1850 0.9827
vn 0.0824 0.7926 -0.6041
vn 0.4380 0.8529 0.2843
vn 0.3865 0.7090 -0.5898
vn 0.1412 -0.4821 0.8647
vn 0.8373 0.4452 0.3174
vn 0.2673 0.7893 -0.5528
vn 0.3724 -0.4829 0.7925
vn 0.9014 -0.3895 0.1891
vn 0.0255 -0.5799 0.8143
vn 0.4540 -0.5213 -0.7226
vn 0.0239 -0.0049 -0.9997
vn 0.1602 -0.4592 -0.8737
vn -0.0228 -0.8917 0.4521
vn -0.4435 -0.8542 0.2714
vn -0.7036 -0.5736 0.4194
vn -0.4737 0.3128 -0.8233
vn -0.2456 0.3796 0.8920
vn -0.4781 0.0991 0.8727
vn -0.5184 0.7546 -0.4024
vn -0.5382 0.8410 0.0559
vn 0.8124 0.4453 -0.3764
vn -0.2701 0.2153 0.9385
vn -0.0849 0.9589 0.2708
vn 0.2059 0.6826 0.7012
vn 0.3276 0.8734 0.3603
vn 0.9399 0.3212 -0.1156
vn -0.6100 -0.6750 -0.4151
vn 0.6969 -0.5937 0.4022
vn 0.6674 0.2431 -0.7039
vn 0.6061 -0.3521 -0.7132
vn 0.3806 -0.9234 0.0487
vn 0.1909 -0.9734 0.1269
vn 0.4286 0.4484 -0.7843
# 47 vertex normals

g Sphere_001
usemtl Material_002
s off
f 92//160 91//160 90//160 
f 93//161 92//161 90//161 
f 94//162 91//162 92//162 
f 94//163 95//163 91//163 
f 97//164 96//164 94//164 
f 99//165 98//165 96//165 
f 94//166 101//166 100//166 
f 96//167 101//167 94//167 
f 96//168 98//168 101//168 
f 102//169 98//169 99//169 
f 98//170 103//170 101//170 
f 100//171 104//171 95//171 
f 103//172 105//172 104//172 
f 107//173 106//173 102//173 
f 108//174 95//174 104//174 
f 107//175 108//175 105//175 
f 109//176 95//176 108//176 
f 102//177 110//177 107//177 
f 107//178 111//178 109//178 
f 109//179 112//179 95//179 
f 110//180 111//180 107//180 
f 111//181 114//181 113//181 
f 99//182 110//182 102//182 
f 114//183 90//183 115//183 
f 91//184 95//184 115//184 
f 90//185 91//185 115//185 
f 99//186 93//186 110//186 
f 99//187 97//187 93//187 
f 99//188 96//188 97//188 
f 100//189 95//189 94//189 
f 105//190 103//190 106//190 
f 103//191 98//191 102//191 
f 101//192 104//192 100//192 
f 103//193 104//193 101//193 
f 112//194 109//194 113//194 
f 106//195 103//195 102//195 
f 105//196 108//196 104//196 
f 106//197 107//197 105//197 
f 107//198 109//198 108//198 
f 111//199 113//199 109//199 
f 93//200 97//200 94//200 92//200 
f 110//201 114//201 111//201 
f 113//202 115//202 112//202 
f 114//203 115//203 113//203 
f 90//204 114//204 110//204 
f 93//205 90//205 110//205 
f 95//206 112//206 115//206 
# 1 polygons - 46 triangles

