# 3ds Max Wavefront OBJ Exporter v0.97b - (c)2007 guruware
# File Created: 01.03.2018 13:50:20

mtllib Stone5.mtl

#
# object default
#

v  0.0000 -0.0581 0.0000
v  0.2110 -0.0590 0.1533
v  -0.0806 -0.0590 0.2480
v  0.6618 -0.0503 0.2608
v  0.7248 -0.0521 0.0000
v  -0.2608 -0.0590 0.0000
v  -0.0806 -0.0590 -0.2480
v  0.2110 -0.0590 -0.1533
v  0.7746 0.2087 0.1533
v  -0.1371 -0.0534 0.5079
v  0.4332 -0.0521 0.4872
v  0.3028 0.2087 0.4961
v  -0.4437 -0.0131 0.0000
v  -0.3414 -0.0521 0.2480
v  -0.3976 0.2087 0.1472
v  -0.1371 -0.0131 -0.4220
v  -0.3414 -0.0521 -0.2480
v  -0.2916 0.2087 -0.4013
v  0.6618 -0.0345 -0.2608
v  0.4332 -0.0521 -0.4013
v  0.5944 0.2087 -0.4013
v  0.5944 0.2087 0.3525
v  -0.2916 0.2087 0.4013
v  -0.3976 0.2087 -0.1594
v  0.3028 0.2087 -0.4961
v  0.7746 0.2087 -0.1533
v  0.4399 0.4306 0.3709
v  0.5824 0.4695 0.2011
v  0.3834 0.5169 0.2480
v  -0.2848 0.3931 0.2547
v  -0.1304 0.4695 0.4013
v  -0.2110 0.4628 0.1533
v  -0.2848 0.3949 -0.2669
v  -0.3033 0.3872 -0.0098
v  -0.2110 0.4643 -0.1533
v  0.4399 0.4306 -0.3456
v  -0.1304 0.4695 -0.4013
v  0.3834 0.5169 -0.2480
v  0.7465 0.4306 0.0000
v  0.6442 0.4695 -0.2480
v  0.5636 0.5678 0.0000
v  0.3028 0.5449 0.0000
# 42 vertices

vn -0.0013 -1.0000 -0.0041
vn 0.0166 -0.9998 0.0107
vn 0.0035 -1.0000 -0.0025
vn 0.0035 -1.0000 0.0025
vn -0.0013 -1.0000 0.0041
vn 0.9240 -0.3089 0.2254
vn 0.0362 -0.0158 0.9992
vn -0.9261 -0.0554 0.3733
vn -0.5746 -0.3304 -0.7488
vn 0.5143 -0.3178 -0.7966
vn 0.7409 -0.0446 0.6702
vn -0.1504 0.2949 0.9436
vn -0.9791 0.2033 -0.0000
vn -0.1574 -0.0177 -0.9874
vn 0.8037 -0.1148 -0.5839
vn 0.3061 0.8394 0.4492
vn -0.5544 0.8171 0.1580
vn -0.6636 0.7477 -0.0255
vn 0.1136 0.7757 -0.6208
vn 0.5957 0.7941 -0.1210
vn -0.0866 0.9865 -0.1392
vn 0.1698 0.9339 -0.3148
vn 0.1419 0.7806 -0.6087
vn -0.1105 0.9830 -0.1466
vn -0.0895 0.9960 -0.0080
vn -0.5372 0.8287 -0.1570
vn -0.1563 0.9877 0.0047
vn -0.6374 0.7705 0.0037
vn -0.6642 0.7470 0.0298
vn -0.1130 0.9826 0.1473
vn -0.0911 0.9958 0.0027
vn 0.0860 0.8333 0.5461
vn -0.0866 0.9865 0.1392
vn 0.3003 0.8678 0.3960
vn 0.5690 0.7585 0.3175
vn 0.8897 0.3304 -0.3151
vn 0.7947 0.1876 -0.5773
vn 0.3196 0.4341 -0.8423
vn 0.1180 0.5064 -0.8542
vn -0.1567 0.0968 -0.9829
vn -0.7017 0.4336 -0.5653
vn -0.8662 0.4975 -0.0476
vn -0.8842 0.4671 -0.0000
vn -0.8645 0.5002 0.0494
vn -0.7224 0.4465 0.5280
vn -0.1567 0.0968 0.9829
vn 0.0783 0.4527 0.8882
vn 0.6540 0.4022 0.6408
vn 0.6829 0.3901 0.6177
vn 0.7335 0.4468 0.5122
vn 0.2814 0.4134 -0.8660
vn 0.3035 -0.1876 -0.9342
vn 0.0111 -0.3365 -0.9416
vn -0.8715 0.3075 -0.3821
vn -0.9141 -0.0610 -0.4008
vn -0.9260 -0.0739 -0.3703
vn -0.8737 0.3220 0.3646
vn -0.9217 -0.0500 0.3846
vn -0.7695 -0.2080 0.6039
vn 0.4302 0.2270 0.8737
vn 0.4339 0.1870 0.8813
vn 0.7024 -0.0682 0.7085
vn 0.9921 0.1256 -0.0000
vn 0.9822 -0.1876 -0.0000
vn 0.9165 -0.3178 -0.2429
vn 0.0606 -0.9978 0.0265
vn 0.0070 -0.9997 -0.0215
vn -0.0577 -0.9698 -0.2369
vn -0.0256 -0.9687 -0.2470
vn -0.0265 -0.9995 -0.0192
vn -0.2428 -0.9687 0.0520
vn -0.2428 -0.9687 -0.0520
vn -0.0265 -0.9995 0.0192
vn -0.0265 -0.9995 0.0156
vn 0.0361 -0.9965 -0.0760
vn 0.0134 -0.9999 -0.0000
vn -0.0043 -1.0000 -0.0000
vn 0.0032 -0.9998 0.0220
vn 0.0055 -0.9998 0.0170
vn 0.0169 -0.9998 0.0094
# 80 vertex normals

g default
usemtl Stone
s off
f 1//1 2//1 3//1 
f 4//2 2//2 5//2 
f 1//3 3//3 6//3 
f 1//4 6//4 7//4 
f 1//5 7//5 8//5 
f 4//6 5//6 9//6 
f 10//7 11//7 12//7 
f 13//8 14//8 15//8 
f 16//9 17//9 18//9 
f 19//10 20//10 21//10 
f 4//11 9//11 22//11 
f 10//12 12//12 23//12 
f 13//13 15//13 24//13 
f 16//14 18//14 25//14 
f 19//15 21//15 26//15 
f 27//16 28//16 29//16 
f 30//17 31//17 32//17 
f 33//18 34//18 35//18 
f 36//19 37//19 38//19 
f 39//20 40//20 41//20 
f 41//21 38//21 42//21 
f 41//22 40//22 38//22 
f 40//23 36//23 38//23 
f 38//24 35//24 42//24 
f 38//25 37//25 35//25 
f 37//26 33//26 35//26 
f 35//27 32//27 42//27 
f 35//28 34//28 32//28 
f 34//29 30//29 32//29 
f 32//30 29//30 42//30 
f 32//31 31//31 29//31 
f 31//32 27//32 29//32 
f 29//33 41//33 42//33 
f 29//34 28//34 41//34 
f 28//35 39//35 41//35 
f 26//36 40//36 39//36 
f 26//37 21//37 40//37 
f 21//38 36//38 40//38 
f 25//39 37//39 36//39 
f 25//40 18//40 37//40 
f 18//41 33//41 37//41 
f 24//42 34//42 33//42 
f 24//43 15//43 34//43 
f 15//44 30//44 34//44 
f 23//45 31//45 30//45 
f 23//46 12//46 31//46 
f 12//47 27//47 31//47 
f 22//48 28//48 27//48 
f 22//49 9//49 28//49 
f 9//50 39//50 28//50 
f 21//51 25//51 36//51 
f 21//52 20//52 25//52 
f 20//53 16//53 25//53 
f 18//54 24//54 33//54 
f 18//55 17//55 24//55 
f 17//56 13//56 24//56 
f 15//57 23//57 30//57 
f 15//58 14//58 23//58 
f 14//59 10//59 23//59 
f 12//60 22//60 27//60 
f 12//61 11//61 22//61 
f 11//62 4//62 22//62 
f 9//63 26//63 39//63 
f 9//64 5//64 26//64 
f 5//65 19//65 26//65 
f 8//66 20//66 19//66 
f 8//67 7//67 20//67 
f 7//68 16//68 20//68 
f 7//69 17//69 16//69 
f 7//70 6//70 17//70 
f 6//71 13//71 17//71 
f 6//72 14//72 13//72 
f 6//73 3//73 14//73 
f 3//74 10//74 14//74 
f 5//75 8//75 19//75 
f 5//76 2//76 8//76 
f 2//77 1//77 8//77 
f 3//78 11//78 10//78 
f 3//79 2//79 11//79 
f 2//80 4//80 11//80 
# 80 faces

