# 3ds Max Wavefront OBJ Exporter v0.97b - (c)2007 guruware
# File Created: 01.03.2018 10:07:47

mtllib Tree6.mtl

#
# object Icosphere_Icosphere_002
#

v  2033.4918 2497.5381 -29282.6738
v  2413.4192 2560.6216 -29022.5488
v  1958.4851 2562.4734 -28818.7637
v  1710.2129 2560.6221 -29251.0332
v  1936.4242 2965.6550 -29958.5293
v  1635.9741 2833.4973 -29738.8457
v  1593.2841 3292.8704 -29942.7266
v  2783.2627 2965.6570 -29539.3301
v  2436.4568 2927.6074 -29860.7871
v  2722.1772 3333.6929 -29816.4863
v  1936.4242 2965.6548 -28373.7578
v  2001.6570 3292.8701 -28256.8711
v  1552.6355 3163.7280 -28446.9043
v  1276.0525 2965.6584 -29049.6133
v  1162.5646 3333.6929 -29022.5488
v  1185.0463 3292.8718 -29380.8340
v  1927.0909 3333.6921 -30074.8262
v  2913.7646 3163.7295 -29443.1211
v  2206.2837 3845.6357 -28373.7578
v  2619.1802 3883.6833 -28604.2559
v  2253.9187 4109.4248 -28604.2578
v  1359.4453 3845.6348 -28792.9570
v  1706.2512 3883.6841 -28471.5000
v  1478.2449 4050.9375 -28889.1660
v  2866.6555 3845.6328 -29049.6133
v  2741.1497 3955.5837 -29483.3750
v  2713.9937 4050.9363 -29041.6035
v  2436.6121 4248.8169 -29166.1426
v  2102.2153 4250.6709 -29535.8379
v  2109.2163 4313.7534 -29049.6133
v  2450.0388 4159.3062 -29532.8535
v  2400.0229 3937.4539 -29839.8906
v  1729.2888 4250.6699 -29309.7363
v  1878.5598 4081.4048 -29759.4922
v  1478.2449 4050.9375 -29443.1211
v  2206.2837 3845.6360 -29958.5293
v  1706.2512 3883.6838 -29860.7871
v  1359.4453 3845.6348 -29539.3301
v  1829.0818 4250.6699 -28885.1953
v  1235.1038 3780.9575 -29245.3242
v  1878.5598 4081.4045 -28572.7949
v  2450.0388 4159.3057 -28799.4316
v  2980.1431 3477.5984 -29309.7383
v  2786.0603 3661.4661 -29685.4063
v  2352.4495 3559.4292 -30031.2695
v  1798.3584 3661.4666 -30006.3281
v  1335.4315 3559.4282 -29700.8184
v  1228.9435 3647.5620 -28889.1641
v  1480.5095 3518.4204 -28471.4941
v  1720.4565 3535.4146 -28325.9551
v  2074.4565 3647.5623 -28279.3711
v  2488.7537 3477.5986 -28346.2070
v  2786.0603 3661.4646 -28646.8809
v  2807.2764 3251.8621 -28631.4688
v  2957.6614 3518.4194 -28951.4531
v  2344.3496 3149.8245 -30006.3281
v  1356.6482 3149.8252 -29685.4063
v  1367.6782 2927.6091 -29513.5234
v  1293.6226 3275.8762 -28692.6699
v  1523.5278 2927.6077 -28604.2559
v  2344.3491 3149.8242 -28325.9570
v  2436.4568 2927.6072 -28471.5000
v  2783.2627 2965.6570 -28792.9570
v  2907.6042 3030.3342 -29086.9629
v  2664.4631 2760.3540 -29443.1211
v  2313.6257 2560.6211 -29447.0918
v  2264.1479 2729.8867 -29759.4922
v  1888.7889 2701.8667 -29728.0293
v  1428.7135 2760.3552 -29290.6816
v  1491.2031 2747.8486 -28927.1875
v  1692.6685 2651.9858 -28799.4316
v  1991.2145 2760.3523 -28516.4727
v  2664.4636 2760.3542 -28889.1660
v  2303.0991 2651.9849 -28692.6738
# 74 vertices

vn 0.0624 -0.9870 0.1482
vn -0.1802 -0.9777 0.1077
vn -0.4195 -0.4005 -0.8146
vn 0.6496 -0.3856 -0.6552
vn -0.3104 -0.2643 0.9131
vn -0.9558 -0.2928 -0.0266
vn -0.3207 -0.2928 -0.9008
vn 0.8017 -0.2689 -0.5338
vn 0.3568 0.5773 0.7344
vn -0.5801 0.5959 0.5553
vn 0.7984 0.5968 -0.0797
vn 0.1484 0.9804 -0.1293
vn 0.6139 0.7785 -0.1303
vn 0.2495 0.9428 -0.2210
vn 0.5843 0.7931 -0.1722
vn 0.2090 0.7762 -0.5949
vn 0.5399 0.6381 -0.5490
vn -0.0771 0.9889 -0.1272
vn 0.1024 0.7413 -0.6634
vn -0.2502 0.8758 -0.4127
vn -0.4064 0.8025 -0.4369
vn 0.0891 0.7119 -0.6966
vn -0.1227 0.5351 -0.8358
vn -0.4786 0.6932 -0.5389
vn -0.5801 0.5959 -0.5553
vn -0.1939 0.9800 0.0456
vn -0.6226 0.7825 0.0000
vn -0.4924 0.8626 0.1157
vn -0.7987 0.5624 -0.2140
vn -0.7431 0.6692 0.0000
vn -0.8242 0.5465 0.1484
vn -0.4379 0.7596 0.4809
vn 0.0338 0.9125 0.4077
vn -0.0253 0.8773 0.4793
vn -0.4786 0.6932 0.5389
vn -0.1227 0.5351 0.8358
vn 0.0142 0.6565 0.7542
vn 0.1401 0.9164 0.3749
vn 0.2644 0.9391 0.2195
vn 0.5141 0.8374 0.1856
vn 0.4215 0.6819 0.5978
vn 0.6337 0.6667 0.3923
vn 0.7520 0.5447 0.3713
vn 0.9049 0.3936 -0.1621
vn 0.8906 0.0049 -0.4548
vn 0.8905 0.0052 -0.4550
vn 0.8901 0.0084 -0.4557
vn 0.8931 0.3393 -0.2954
vn 0.8901 0.0087 -0.4556
vn 0.6082 0.5104 -0.6079
vn 0.5812 0.2020 -0.7883
vn 0.5421 0.3243 -0.7753
vn 0.3390 0.3906 -0.8559
vn -0.0069 0.2020 -0.9794
vn 0.0019 0.2472 -0.9690
vn -0.1283 0.5056 -0.8532
vn -0.3726 0.0474 -0.9268
vn -0.5691 0.1781 -0.8028
vn -0.5711 0.2708 -0.7749
vn -0.6421 0.4169 -0.6434
vn -0.9393 0.1778 -0.2934
vn -0.9084 0.2606 -0.3269
vn -0.9895 0.1226 -0.0761
vn -0.9813 0.1853 0.0524
vn -0.8586 0.4847 0.1667
vn -0.6464 0.3995 0.6501
vn -0.5157 -0.0456 0.8556
vn -0.5085 0.3143 0.8017
vn -0.2346 0.3667 0.9003
vn -0.1301 0.4958 0.8587
vn -0.3506 -0.1429 0.9256
vn -0.1594 0.0951 0.9826
vn 0.4224 0.3856 0.8203
vn 0.5840 0.2934 0.7569
vn 0.6902 0.0629 0.7209
vn 0.7718 0.5056 0.3857
vn 0.8819 0.0633 0.4672
vn 0.8779 0.3441 0.3330
vn 0.4723 -0.0629 -0.8792
vn 0.1346 -0.0629 -0.9889
vn 0.5394 -0.2934 -0.7893
vn 0.1283 -0.5056 -0.8532
vn 0.0240 -0.3007 -0.9534
vn -0.7168 -0.0633 -0.6944
vn -0.8819 -0.0633 -0.4672
vn -0.5675 -0.3775 -0.7317
vn -0.6565 -0.4816 -0.5805
vn -0.8826 -0.3143 -0.3497
vn -0.9050 -0.3995 -0.1460
vn -0.7924 0.2524 0.5553
vn -0.9265 0.0368 0.3745
vn -0.8277 0.1429 0.5427
vn -0.7065 -0.0951 0.7013
vn -0.9032 -0.3010 0.3061
vn -0.8053 -0.4273 0.4110
vn -0.7213 -0.3203 0.6141
vn -0.3951 -0.4752 0.7862
vn 0.2599 0.2689 0.9274
vn 0.1702 0.0276 0.9850
vn 0.1886 -0.0224 0.9818
vn 0.5701 -0.2020 0.7964
vn 0.0454 -0.3441 0.9378
vn 0.1283 -0.5056 0.8532
vn 0.5711 -0.2708 0.7749
vn 0.6421 -0.4169 0.6434
vn 0.9608 0.2759 0.0289
vn 0.9393 -0.1778 0.2934
vn 0.9895 -0.1226 0.0761
vn 0.9813 -0.1853 -0.0524
vn 0.9084 -0.2606 0.3269
vn 0.8586 -0.4847 -0.1667
vn 0.5801 -0.5959 -0.5553
vn 0.4379 -0.7596 -0.4809
vn 0.4786 -0.6932 -0.5389
vn 0.1227 -0.5351 -0.8358
vn -0.0338 -0.9125 -0.4077
vn 0.0253 -0.8773 -0.4793
vn -0.0142 -0.6565 -0.7542
vn -0.2815 -0.6021 -0.7472
vn -0.2123 -0.9125 -0.3497
vn -0.4105 -0.8210 -0.3968
vn -0.5051 -0.7837 -0.3615
vn -0.5757 -0.7218 -0.3841
vn -0.8628 -0.4885 -0.1303
vn -0.5839 -0.8086 0.0726
vn -0.7361 -0.6689 0.1035
vn -0.7562 -0.5366 0.3744
vn -0.5019 -0.8513 0.1527
vn -0.5967 -0.6743 0.4351
vn -0.3024 -0.9365 0.1777
vn -0.2302 -0.8026 0.5503
vn -0.3623 -0.6764 0.6413
vn -0.3489 -0.5959 0.7233
vn 0.8242 -0.5465 -0.1484
vn 0.7987 -0.5624 0.2140
vn 0.7431 -0.6692 -0.0000
vn 0.6226 -0.7825 -0.0000
vn 0.4924 -0.8626 -0.1157
vn 0.1939 -0.9800 -0.0456
vn 0.1208 -0.5447 0.8299
vn 0.0176 -0.8374 0.5463
vn 0.1773 -0.6667 0.7239
vn 0.1331 -0.9428 0.3056
vn 0.4472 -0.8122 0.3745
vn 0.4979 -0.6764 0.5427
vn 0.5801 -0.5959 0.5553
# 146 vertex normals

g Icosphere_Icosphere_002
usemtl Material_105
s off
f 1//1 2//1 3//1 
f 1//2 3//2 4//2 
f 5//3 6//3 7//3 
f 8//4 9//4 10//4 
f 11//5 12//5 13//5 
f 14//6 15//6 16//6 
f 5//7 7//7 17//7 
f 8//8 10//8 18//8 
f 19//9 20//9 21//9 
f 22//10 23//10 24//10 
f 25//11 26//11 27//11 
f 28//12 29//12 30//12 
f 27//13 26//13 28//13 
f 28//14 31//14 29//14 
f 28//15 26//15 31//15 
f 31//16 32//16 29//16 
f 26//17 32//17 31//17 
f 29//18 33//18 30//18 
f 32//19 34//19 29//19 
f 29//20 34//20 33//20 
f 34//21 35//21 33//21 
f 32//22 36//22 34//22 
f 36//23 37//23 34//23 
f 34//24 37//24 35//24 
f 37//25 38//25 35//25 
f 33//26 39//26 30//26 
f 35//27 24//27 33//27 
f 33//28 24//28 39//28 
f 38//29 40//29 35//29 
f 35//30 40//30 24//30 
f 40//31 22//31 24//31 
f 24//32 41//32 39//32 
f 39//33 21//33 30//33 
f 39//34 41//34 21//34 
f 24//35 23//35 41//35 
f 23//36 19//36 41//36 
f 41//37 19//37 21//37 
f 21//38 42//38 30//38 
f 30//39 42//39 28//39 
f 42//40 27//40 28//40 
f 21//41 20//41 42//41 
f 42//42 20//42 27//42 
f 20//43 25//43 27//43 
f 43//44 26//44 25//44 
f 18//45 10//46 43//47 
f 43//48 44//48 26//48 
f 43//47 10//46 44//49 
f 44//50 32//50 26//50 
f 10//51 45//51 44//51 
f 44//52 45//52 32//52 
f 45//53 36//53 32//53 
f 17//54 46//54 45//54 
f 45//55 46//55 36//55 
f 46//56 37//56 36//56 
f 17//57 7//57 46//57 
f 7//58 47//58 46//58 
f 46//59 47//59 37//59 
f 47//60 38//60 37//60 
f 16//61 40//61 47//61 
f 47//62 40//62 38//62 
f 16//63 15//63 40//63 
f 15//64 48//64 40//64 
f 48//65 22//65 40//65 
f 49//66 23//66 22//66 
f 13//67 50//67 49//67 
f 49//68 50//68 23//68 
f 50//69 51//69 23//69 
f 51//70 19//70 23//70 
f 13//71 12//71 50//71 
f 50//72 12//72 51//72 
f 52//73 20//73 19//73 
f 52//74 53//74 20//74 
f 52//75 54//75 53//75 
f 53//76 25//76 20//76 
f 54//77 55//77 53//77 
f 53//78 55//78 25//78 
f 10//79 56//79 45//79 
f 45//80 56//80 17//80 
f 10//81 9//81 56//81 
f 9//82 5//82 56//82 
f 56//83 5//83 17//83 
f 7//84 57//84 47//84 
f 47//85 57//85 16//85 
f 7//86 6//86 57//86 
f 6//87 58//87 57//87 
f 57//88 58//88 16//88 
f 58//89 14//89 16//89 
f 48//90 49//90 22//90 
f 15//91 59//91 48//91 
f 48//92 59//92 49//92 
f 59//93 13//93 49//93 
f 15//94 14//94 59//94 
f 14//95 60//95 59//95 
f 59//96 60//96 13//96 
f 60//97 11//97 13//97 
f 51//98 52//98 19//98 
f 12//99 52//99 51//99 
f 12//100 61//100 52//100 
f 61//101 54//101 52//101 
f 12//102 11//102 61//102 
f 11//103 62//103 61//103 
f 61//104 62//104 54//104 
f 62//105 63//105 54//105 
f 55//106 43//106 25//106 
f 54//107 64//107 55//107 
f 55//108 64//108 43//108 
f 64//109 18//109 43//109 
f 54//110 63//110 64//110 
f 64//111 8//111 18//111 
f 65//112 9//112 8//112 
f 66//113 67//113 65//113 
f 65//114 67//114 9//114 
f 67//115 5//115 9//115 
f 1//116 68//116 66//116 
f 66//117 68//117 67//117 
f 67//118 68//118 5//118 
f 68//119 6//119 5//119 
f 1//120 4//120 68//120 
f 68//121 4//121 6//121 
f 4//122 69//122 6//122 
f 6//123 69//123 58//123 
f 69//124 14//124 58//124 
f 4//125 70//125 69//125 
f 69//126 70//126 14//126 
f 70//127 60//127 14//127 
f 4//128 71//128 70//128 
f 70//129 71//129 60//129 
f 4//130 3//130 71//130 
f 3//131 72//131 71//131 
f 71//132 72//132 60//132 
f 72//133 11//133 60//133 
f 64//134 65//134 8//134 
f 63//135 73//135 64//135 
f 64//136 73//136 65//136 
f 73//137 2//137 65//137 
f 65//138 2//138 66//138 
f 2//139 1//139 66//139 
f 72//140 62//140 11//140 
f 3//141 74//141 72//141 
f 72//142 74//142 62//142 
f 3//143 2//143 74//143 
f 2//144 73//144 74//144 
f 74//145 73//145 62//145 
f 73//146 63//146 62//146 
# 0 polygons - 144 triangles

#
# object Icosphere_001_Icosphere_003
#

v  2156.5227 2286.6777 -28088.3691
v  2261.9158 2314.3586 -27885.8906
v  2008.4757 2315.3904 -27772.3633
v  1870.1652 2314.3586 -28013.1758
v  1996.1855 2539.9995 -28407.3164
v  1896.4667 2421.8098 -28290.8984
v  1877.4957 2811.1519 -28455.1738
v  2440.4905 2471.8071 -28144.5273
v  2228.1299 2455.5347 -28333.6641
v  2433.9224 2745.0303 -28328.1855
v  2015.5244 2471.8064 -27559.6133
v  2032.5265 2722.2881 -27459.3379
v  1768.5669 2578.3186 -27600.1465
v  1628.2981 2540.0012 -27900.9668
v  1565.0748 2745.0303 -27885.8906
v  1577.5991 2722.2891 -28085.4883
v  1990.9863 2745.0298 -28472.1055
v  2558.0273 2608.9500 -28039.3203
v  2103.6448 2975.1685 -27487.1641
v  2433.0806 2993.9104 -27659.2559
v  2231.3740 3202.0295 -27703.1348
v  2474.9958 3098.4211 -27893.4395
v  2444.4915 3091.4805 -28142.6133
v  2208.8372 3285.8418 -27927.5117
v  2282.3159 3204.9727 -28170.1758
v  2088.5466 3255.8711 -28171.8398
v  2206.5020 3059.5308 -28381.8320
v  1880.7922 3255.8708 -28045.8809
v  1914.5781 3114.6946 -28333.6641
v  1702.2177 3098.4219 -28144.5273
v  1936.3861 3255.8711 -27809.3711
v  1702.2177 3098.4219 -27787.2422
v  1605.4858 2994.1978 -28009.9961
v  1914.5781 3114.6946 -27598.1074
v  2577.6328 2825.1990 -28045.8809
v  2469.5110 2927.6301 -28255.1621
v  2227.9500 2870.7861 -28447.8398
v  1661.3777 2870.7856 -28263.7480
v  1602.0538 2919.8843 -27811.5820
v  1804.1741 2852.5959 -27527.1094
v  2303.8840 2825.1990 -27509.1055
v  2481.3303 2699.4429 -27668.0215
v  2565.1084 2847.9397 -27846.2832
v  2223.4375 2642.5986 -28433.9453
v  1673.1970 2642.5994 -28255.1621
v  1686.0017 2466.2139 -28100.1094
v  1638.0862 2712.8213 -27702.1172
v  2251.1975 2576.3191 -27527.1113
v  2440.4905 2471.8071 -27787.2422
v  1818.7197 2376.3406 -27782.3359
v  2200.4570 2365.2566 -27702.1191
# 51 vertices

vn 0.0460 -0.9927 0.1118
vn -0.0826 -0.9952 0.0517
vn -0.4983 -0.3575 -0.7898
vn 0.6192 -0.4277 -0.6585
vn -0.2927 -0.3382 0.8944
vn -0.9558 -0.2928 -0.0266
vn -0.3063 -0.2939 -0.9054
vn 0.8098 -0.3138 -0.4957
vn 0.3714 0.5219 0.7679
vn 0.5812 0.8083 -0.0937
vn 0.5813 0.8083 -0.0935
vn 0.2487 0.9390 -0.2376
vn 0.5815 0.8082 -0.0933
vn 0.2074 0.7700 -0.6034
vn 0.5240 0.6027 -0.6018
vn -0.0569 0.9940 -0.0939
vn 0.0282 0.7380 -0.6742
vn -0.2724 0.8508 -0.4494
vn -0.4478 0.7808 -0.4356
vn -0.0993 0.9948 0.0233
vn -0.6613 0.7501 0.0000
vn -0.5450 0.8286 0.1281
vn -0.7330 0.6803 0.0000
vn -0.4658 0.7572 0.4579
vn 0.0467 0.9373 0.3454
vn -0.0467 0.8328 0.5517
vn 0.0605 0.6702 0.7397
vn 0.5365 0.8068 0.2475
vn 0.6096 0.6776 0.4115
vn 0.9048 0.4080 -0.1221
vn 0.8978 -0.0944 -0.4302
vn 0.8931 0.3393 -0.2954
vn 0.8901 0.0087 -0.4556
vn 0.5683 0.5231 -0.6352
vn 0.5812 0.2020 -0.7883
vn 0.5392 0.3320 -0.7740
vn -0.0171 0.2204 -0.9753
vn -0.0358 0.3263 -0.9446
vn -0.0805 0.3789 -0.9219
vn -0.5583 0.3662 -0.7444
vn -0.6129 0.4501 -0.6494
vn -0.9393 0.1778 -0.2934
vn -0.8682 0.3434 -0.3582
vn -0.9895 0.1226 -0.0761
vn -0.9813 0.1853 0.0524
vn -0.8701 0.4664 0.1596
vn -0.6166 0.4371 0.6547
vn -0.2647 0.3544 0.8968
vn -0.3783 -0.1920 0.9055
vn -0.1951 0.1613 0.9674
vn 0.4020 0.4175 0.8149
vn 0.7002 0.0937 0.7078
vn 0.8539 0.1249 0.5053
vn 0.8698 0.3736 0.3224
vn 0.4723 -0.0629 -0.8792
vn 0.1346 -0.0629 -0.9889
vn 0.5565 -0.3817 -0.7380
vn 0.1083 -0.4676 -0.8773
vn 0.0240 -0.3007 -0.9534
vn -0.6714 -0.0626 -0.7385
vn -0.8819 -0.0633 -0.4672
vn -0.4838 -0.3601 -0.7977
vn -0.6248 -0.5406 -0.5634
vn -0.8764 -0.3523 -0.3283
vn -0.9163 -0.3808 -0.1244
vn -0.7314 0.3289 0.5974
vn -0.9265 0.0368 0.3745
vn -0.7813 0.1800 0.5977
vn -0.6777 -0.1058 0.7277
vn -0.9032 -0.3010 0.3061
vn -0.7892 -0.4438 0.4245
vn 0.1563 0.0645 0.9856
vn 0.2219 -0.1170 0.9680
vn 0.5821 -0.1806 0.7928
vn 0.0379 -0.3736 0.9268
vn 0.6287 -0.4463 0.6368
vn 0.9396 0.3418 0.0200
vn 0.9404 -0.2301 0.2503
vn 0.9935 -0.0879 0.0724
vn 0.9163 -0.3021 0.2629
vn 0.4356 -0.7958 -0.4206
vn 0.0111 -0.8252 -0.5648
vn -0.0227 -0.6918 -0.7218
vn -0.1851 -0.9105 -0.3698
vn -0.4895 -0.7966 -0.3546
vn -0.6513 -0.7566 0.0580
vn -0.6765 -0.7325 0.0754
vn -0.7279 -0.5501 0.4095
vn -0.3094 -0.9334 0.1817
vn -0.2774 -0.7696 0.5750
vn -0.3919 -0.6680 0.6326
vn 0.7593 -0.6507 -0.0000
vn 0.6613 -0.7501 -0.0000
vn 0.5179 -0.8413 -0.1546
vn -0.0075 -0.8055 0.5925
vn 0.1886 -0.6533 0.7332
vn 0.1331 -0.9428 0.3056
vn 0.4845 -0.7878 0.3802
vn 0.4921 -0.6227 0.6083
# 99 vertex normals

g Icosphere_001_Icosphere_003
usemtl Material_104
s off
f 75//147 76//147 77//147 
f 75//148 77//148 78//148 
f 79//149 80//149 81//149 
f 82//150 83//150 84//150 
f 85//151 86//151 87//151 
f 88//152 89//152 90//152 
f 79//153 81//153 91//153 
f 82//154 84//154 92//154 
f 93//155 94//155 95//155 
f 96//156 97//157 98//157 
f 98//158 99//158 100//158 
f 98//157 97//157 99//159 
f 99//160 101//160 100//160 
f 97//161 101//161 99//161 
f 100//162 102//162 98//162 
f 101//163 103//163 100//163 
f 100//164 103//164 102//164 
f 103//165 104//165 102//165 
f 102//166 105//166 98//166 
f 104//167 106//167 102//167 
f 102//168 106//168 105//168 
f 104//169 107//169 106//169 
f 106//170 108//170 105//170 
f 105//171 95//171 98//171 
f 105//172 108//172 95//172 
f 108//173 93//173 95//173 
f 95//174 96//174 98//174 
f 95//175 94//175 96//175 
f 109//176 97//176 96//176 
f 92//177 84//177 109//177 
f 109//178 110//178 97//178 
f 109//179 84//179 110//179 
f 110//180 101//180 97//180 
f 84//181 111//181 110//181 
f 110//182 111//182 101//182 
f 91//183 81//183 111//183 
f 111//184 81//184 101//184 
f 81//185 103//185 101//185 
f 81//186 112//186 103//186 
f 112//187 104//187 103//187 
f 90//188 107//188 112//188 
f 112//189 107//189 104//189 
f 90//190 89//190 107//190 
f 89//191 113//191 107//191 
f 113//192 106//192 107//192 
f 114//193 108//193 106//193 
f 114//194 93//194 108//194 
f 87//195 86//195 114//195 
f 114//196 86//196 93//196 
f 115//197 94//197 93//197 
f 115//198 116//198 94//198 
f 116//199 117//199 94//199 
f 94//200 117//200 96//200 
f 84//201 118//201 111//201 
f 111//202 118//202 91//202 
f 84//203 83//203 118//203 
f 83//204 79//204 118//204 
f 118//205 79//205 91//205 
f 81//206 119//206 112//206 
f 112//207 119//207 90//207 
f 81//208 80//208 119//208 
f 80//209 120//209 119//209 
f 119//210 120//210 90//210 
f 120//211 88//211 90//211 
f 113//212 114//212 106//212 
f 89//213 121//213 113//213 
f 113//214 121//214 114//214 
f 121//215 87//215 114//215 
f 89//216 88//216 121//216 
f 88//217 87//217 121//217 
f 86//218 115//218 93//218 
f 86//219 122//219 115//219 
f 122//220 116//220 115//220 
f 86//221 85//221 122//221 
f 122//222 123//222 116//222 
f 117//223 109//223 96//223 
f 116//224 92//224 117//224 
f 117//225 92//225 109//225 
f 116//226 123//226 92//226 
f 75//227 83//227 82//227 
f 75//228 80//228 83//228 
f 83//229 80//229 79//229 
f 75//230 78//230 80//230 
f 78//231 120//231 80//231 
f 78//232 124//232 120//232 
f 120//233 124//233 88//233 
f 124//234 87//234 88//234 
f 78//235 77//235 124//235 
f 77//236 85//236 124//236 
f 124//237 85//237 87//237 
f 92//238 123//238 82//238 
f 123//239 76//239 82//239 
f 82//240 76//240 75//240 
f 77//241 125//241 85//241 
f 85//242 125//242 122//242 
f 77//243 76//243 125//243 
f 76//244 123//244 125//244 
f 125//245 123//245 122//245 
# 0 polygons - 98 triangles

#
# object Cylinder_014
#

v  2176.7048 -471.3342 -29117.0293
v  2176.7048 1854.7419 -29058.9199
v  2354.0710 1854.7419 -28956.5156
v  2404.3958 -471.3343 -28985.5723
v  2354.0710 1854.7419 -28751.7109
v  2404.3958 -471.3343 -28722.6563
v  2176.7043 1779.7037 -28649.3086
v  2176.7043 -471.3343 -28591.1992
v  1999.3381 1854.7419 -28751.7129
v  1949.0134 -471.3343 -28722.6563
v  1980.6343 2216.7930 -28850.8418
v  2164.7351 2285.8359 -28728.0918
v  2163.5034 2430.0217 -28894.4102
v  2042.2958 2426.3599 -28982.5410
v  1999.3381 1854.7419 -28956.5156
v  1949.0134 -471.3343 -28985.5723
v  2189.9058 2351.0203 -29182.4180
v  2055.4968 2386.8599 -29126.5449
v  2126.6287 3204.4456 -29234.9863
v  2182.1584 3189.6389 -29258.0703
v  2360.8052 2187.6167 -28821.5918
v  2297.9124 2394.1826 -28950.2813
v  2188.6741 2148.4805 -29160.5898
v  1992.6040 2180.9766 -29067.0898
v  2372.7749 2151.8003 -29037.8398
v  2311.1133 2354.6819 -29094.2871
v  2148.5896 3502.1489 -29222.2715
v  2179.7668 3503.8831 -29236.0391
v  2232.2344 3191.1514 -29221.6602
v  2226.7805 3207.4709 -29162.1660
v  2171.2507 3222.2773 -29139.0820
v  2121.1748 3220.7649 -29175.4922
v  2207.8816 3504.7322 -29215.5957
v  2145.5276 3511.3118 -29188.8691
v  2173.6423 3522.2080 -29169.2324
v  2204.8196 3513.8950 -29182.1934
v  2162.9094 2252.7222 -28575.9980
v  2271.3147 2192.3960 -28627.6934
v  2169.5276 1955.6992 -28495.8652
v  2039.7893 2010.5868 -28570.7695
v  2168.6853 2147.9934 -28226.5547
v  2089.3948 2181.5386 -28272.3340
v  2164.6406 2337.7078 -28275.5293
v  2230.8933 2292.6526 -28307.1230
v  2299.2656 2010.5868 -28570.7695
v  2061.1223 2208.5273 -28643.8652
v  2152.4719 2348.4377 -28066.6836
v  2112.8984 2354.1201 -28105.6719
v  2165.6382 2429.3420 -28143.3496
v  2202.3208 2396.4812 -28140.6328
v  2102.4326 2302.5115 -28317.0059
v  2247.9761 2181.5386 -28272.3340
v  2128.4180 2548.0076 -27968.0723
v  2094.9658 2552.8110 -28001.0293
v  2139.5476 2616.3975 -28032.8789
v  2170.5559 2588.6196 -28030.5840
v  2131.0256 2401.5725 -28159.7988
v  2202.5127 2350.4734 -28091.3867
v  2170.7180 2549.7283 -27988.9531
v  2110.2886 2592.9238 -28046.7852
# 60 vertices

vn 0.4999 0.0216 -0.8658
vn 0.9998 0.0216 0.0000
vn 0.4968 0.0220 0.8676
vn -0.4968 0.0220 0.8676
vn -0.5489 0.5914 0.5907
vn -0.9998 0.0216 0.0000
vn -0.4999 0.0216 -0.8658
vn 0.0000 -1.0000 -0.0000
vn -0.4019 -0.0860 -0.9116
vn 0.5186 0.6039 0.6053
vn -0.4283 -0.1112 -0.8968
vn 0.9560 0.2933 0.0055
vn 0.5679 -0.0736 -0.8198
vn -0.9648 0.2356 -0.1167
vn -0.3821 0.0646 -0.9219
vn 0.9927 0.1032 0.0627
vn 0.4293 0.2627 0.8641
vn -0.5748 0.2466 0.7803
vn -0.9913 0.0716 -0.1105
vn -0.9913 0.0718 -0.1107
vn -0.9907 0.0774 -0.1121
vn 0.5881 -0.0673 -0.8060
vn -0.0121 0.9640 -0.2655
vn 0.9946 0.0759 0.0704
vn 0.4024 0.0884 0.9112
vn -0.5894 0.0859 0.8033
vn -0.9906 0.0779 -0.1122
vn 0.5858 0.0611 -0.8082
vn -0.9987 -0.0444 -0.0246
vn 0.5096 -0.2786 -0.8140
vn 0.9990 -0.0329 0.0312
vn -0.4647 -0.2833 -0.8389
vn 0.5276 0.8239 0.2067
vn -0.5798 -0.5487 0.6022
vn -0.5620 -0.6740 0.4795
vn 0.4171 0.8777 -0.2358
vn 0.9426 0.1160 0.3131
vn 0.5813 -0.5211 0.6249
vn -0.4744 0.8566 0.2027
vn -0.9600 0.0864 0.2664
vn -0.6033 -0.5186 0.6059
vn 0.4506 0.7655 -0.4594
vn -0.2854 0.9266 -0.2448
vn -0.9868 0.1378 0.0851
vn 0.9825 0.1729 0.0698
vn 0.5624 -0.6721 0.4816
vn -0.6738 -0.3910 0.6270
vn 0.4940 0.4922 -0.7167
vn -0.2248 0.8240 -0.5200
vn -0.9829 0.1841 0.0037
vn 0.9840 0.1552 0.0879
vn 0.5131 -0.5342 0.6718
vn 0.3933 0.6270 0.6725
vn -0.5692 0.6508 0.5025
vn 0.0011 0.5086 -0.8610
vn -0.9606 0.0566 -0.2721
vn 0.4248 -0.3594 0.8309
vn 0.9894 0.1080 0.0970
# 58 vertex normals

g Cylinder_014
usemtl Material_103
s off
f 126//246 127//246 128//246 129//246 
f 129//247 128//247 130//247 131//247 
f 131//248 130//248 132//248 133//248 
f 133//249 132//249 134//249 135//249 
f 136//250 137//250 138//250 139//250 
f 135//251 134//251 140//251 141//251 
f 141//252 140//252 127//252 126//252 
f 126//253 129//253 131//253 133//253 
f 126//253 133//253 135//253 141//253 
f 142//254 143//254 144//254 145//254 
f 137//255 146//255 147//255 138//255 
f 148//256 149//256 143//256 142//256 
f 146//257 150//257 151//257 147//257 
f 150//258 148//258 142//258 151//258 
f 149//259 136//259 139//259 143//259 
f 145//260 144//260 152//260 153//260 
f 147//261 151//261 154//261 155//261 
f 138//262 147//262 155//262 156//262 
f 139//263 138//263 156//263 157//263 
f 143//264 139//264 157//265 144//266 
f 151//267 142//267 145//267 154//267 
f 158//268 153//268 152//268 159//268 
f 158//268 159//268 160//268 161//268 
f 155//269 154//269 158//269 161//269 
f 156//270 155//270 161//270 160//270 
f 157//271 156//271 160//271 159//271 
f 144//266 157//265 159//272 152//272 
f 154//273 145//273 153//273 158//273 
f 140//274 134//274 136//274 149//274 
f 128//275 127//275 148//275 150//275 
f 130//276 128//276 150//276 146//276 
f 127//277 140//277 149//277 148//277 
f 146//278 137//278 162//278 163//278 
f 134//279 132//279 164//279 165//279 
f 165//280 164//280 166//280 167//280 
f 163//281 162//281 168//281 169//281 
f 130//282 146//282 163//282 170//282 
f 132//283 130//283 170//283 164//283 
f 137//284 136//284 171//284 162//284 
f 136//285 134//285 165//285 171//285 
f 167//286 166//286 172//286 173//286 
f 169//287 168//287 174//287 175//287 
f 162//288 171//288 176//288 168//288 
f 171//289 165//289 167//289 176//289 
f 170//290 163//290 169//290 177//290 
f 164//291 170//291 177//291 166//291 
f 173//292 172//292 178//292 179//292 
f 175//293 174//293 180//293 181//293 
f 168//294 176//294 182//294 174//294 
f 176//295 167//295 173//295 182//295 
f 177//296 169//296 175//296 183//296 
f 166//297 177//297 183//297 172//297 
f 178//298 184//298 181//298 180//298 
f 179//299 178//299 180//299 185//299 
f 174//300 182//300 185//300 180//300 
f 182//301 173//301 179//301 185//301 
f 172//302 183//302 184//302 178//302 
f 183//303 175//303 181//303 184//303 
# 58 polygons

