# 3ds Max Wavefront OBJ Exporter v0.97b - (c)2007 guruware
# File Created: 01.03.2018 10:07:11

mtllib Tree5.mtl

#
# object Icosphere_027
#

v  16607.0723 149.3585 -13817.5674
v  16607.0723 842.7842 -13817.5664
v  16803.5723 842.7841 -13674.8018
v  16803.5723 149.3585 -13674.8018
v  16728.5156 842.7841 -13443.8027
v  16728.5156 149.3585 -13443.8027
v  16485.6289 842.7841 -13443.8027
v  16485.6289 149.3585 -13443.8027
v  16410.5723 842.7841 -13674.8018
v  16410.5723 149.3585 -13674.8018
v  16607.0723 581.4923 -13610.9551
v  16777.8184 676.1396 -13486.9023
v  16541.8535 676.1396 -13410.2314
v  16897.5645 1007.9203 -13399.9023
v  16948.5664 934.2307 -13610.9551
v  16396.0176 676.1413 -13610.9551
v  16541.8535 676.1398 -13811.6787
v  16777.8184 676.1398 -13735.0078
v  16988.8750 1520.4271 -13486.9014
v  16496.1152 1007.9203 -13269.4609
v  16712.6016 934.2291 -13286.1758
v  16607.0723 1520.4268 -13209.5039
v  16248.0039 1007.9244 -13610.9551
v  16330.7979 934.2303 -13410.2305
v  16225.2686 1520.4271 -13486.9014
v  16496.1152 1007.9204 -13952.4492
v  16330.7979 934.2303 -13811.6797
v  16371.1045 1520.4268 -13935.7363
v  16897.5645 1007.9203 -13822.0078
v  16712.6016 934.2292 -13935.7344
v  16843.0391 1520.4268 -13935.7363
v  16843.0391 1520.4268 -13286.1738
v  16371.1045 1520.4268 -13286.1738
v  16225.2686 1520.4271 -13735.0088
v  16607.0723 1520.4268 -14012.4063
v  16988.8750 1520.4271 -13735.0088
v  16718.0293 2216.4434 -13269.4609
v  16883.3477 2361.6182 -13410.2305
v  16672.2910 2995.9771 -13410.2314
v  16316.5791 2216.4429 -13399.9023
v  16501.5430 2361.6216 -13286.1758
v  16436.3262 2995.9771 -13486.9023
v  16316.5791 2216.4429 -13822.0078
v  16265.5781 2361.6177 -13610.9551
v  16436.3262 2995.9771 -13735.0078
v  16718.0293 2216.4434 -13952.4492
v  16501.5430 2361.6216 -13935.7334
v  16672.2910 2995.9771 -13811.6787
v  16966.1406 2216.4355 -13610.9551
v  16883.3477 2361.6182 -13811.6797
v  16818.1270 2995.9736 -13610.9551
v  16607.0723 3248.9683 -13610.9551
# 52 vertices

vn 0.5878 0.0000 -0.8090
vn 0.9511 -0.0000 0.3090
vn 0.0000 -0.0000 1.0000
vn 0.0000 1.0000 0.0000
vn -0.9511 -0.0000 0.3090
vn -0.5878 0.0000 -0.8090
vn 0.0000 -1.0000 -0.0000
vn 0.1498 -0.8746 0.4611
vn 0.8507 -0.3973 0.3443
vn -0.3922 -0.8746 0.2850
vn -0.3922 -0.8746 -0.2850
vn 0.1498 -0.8746 -0.4611
vn 0.9539 -0.1235 0.2736
vn 0.0345 -0.1235 0.9917
vn -0.9325 -0.1235 0.3393
vn -0.6109 -0.1235 -0.7820
vn 0.5550 -0.1235 -0.8226
vn 0.8082 -0.0443 0.5872
vn -0.3087 -0.0443 0.9501
vn -0.9990 -0.0443 -0.0000
vn -0.3087 -0.0443 -0.9501
vn 0.8082 -0.0443 -0.5872
vn 0.5413 0.1801 0.8214
vn -0.6139 0.1801 0.7686
vn -0.9207 0.1801 -0.3463
vn 0.0449 0.1801 -0.9826
vn 0.9484 0.1801 -0.2609
vn 0.6706 0.5594 -0.4872
vn 0.7812 0.2599 -0.5676
vn 0.5413 0.1801 -0.8214
vn -0.2561 0.5594 -0.7883
vn -0.2984 0.2599 -0.9184
vn -0.6139 0.1801 -0.7686
vn -0.8289 0.5594 0.0000
vn -0.9656 0.2599 0.0000
vn -0.9207 0.1801 0.3463
vn -0.2561 0.5594 0.7883
vn -0.2984 0.2599 0.9184
vn 0.0449 0.1801 0.9826
vn 0.6706 0.5594 0.4872
vn 0.7812 0.2599 0.5676
vn 0.9484 0.1801 0.2609
vn 0.9418 0.0886 -0.3244
vn 0.8081 0.0479 -0.5871
vn 0.5995 0.0886 -0.7954
vn -0.0175 0.0886 -0.9959
vn -0.3087 0.0479 -0.9500
vn -0.5712 0.0886 -0.8160
vn -0.9526 0.0886 -0.2911
vn -0.9989 0.0479 0.0000
vn -0.9526 0.0886 0.2911
vn -0.5712 0.0886 0.8160
vn -0.3087 0.0479 0.9500
vn -0.0175 0.0886 0.9959
vn 0.5995 0.0886 0.7954
vn 0.8081 0.0479 0.5871
vn 0.9418 0.0886 0.3244
vn 0.3089 0.0326 -0.9505
vn 0.3083 -0.0686 -0.9488
vn 0.0345 -0.1235 -0.9917
vn -0.8086 0.0326 -0.5875
vn -0.8071 -0.0686 -0.5864
vn -0.9325 -0.1235 -0.3393
vn -0.8086 0.0326 0.5875
vn -0.8071 -0.0686 0.5864
vn -0.6109 -0.1235 0.7820
vn 0.3089 0.0326 0.9505
vn 0.3083 -0.0686 0.9488
vn 0.5550 -0.1235 0.8226
vn 0.9995 0.0326 0.0000
vn 0.9976 -0.0686 -0.0000
vn 0.9539 -0.1235 -0.2736
vn 0.5903 -0.3973 -0.7026
vn 0.2577 -0.5518 -0.7932
vn -0.0646 -0.3973 -0.9154
vn -0.4858 -0.3973 -0.7785
vn -0.6747 -0.5518 -0.4902
vn -0.8906 -0.3973 -0.2215
vn -0.8906 -0.3973 0.2215
vn -0.6747 -0.5518 0.4902
vn -0.4858 -0.3973 0.7785
vn 0.8507 -0.3973 -0.3443
vn 0.8340 -0.5518 -0.0000
vn 0.4848 -0.8746 -0.0000
vn -0.0646 -0.3973 0.9154
vn 0.2577 -0.5518 0.7932
vn 0.5903 -0.3973 0.7026
# 87 vertex normals

g Icosphere_027
usemtl Material_106
s off
f 1//1 2//1 3//1 4//1 
f 4//2 3//2 5//2 6//2 
f 6//3 5//3 7//3 8//3 
f 3//4 2//4 9//4 7//4 
f 3//4 7//4 5//4 
f 8//5 7//5 9//5 10//5 
f 10//6 9//6 2//6 1//6 
f 1//7 4//7 6//7 8//7 
f 1//7 8//7 10//7 
usemtl Material_107
f 11//8 12//8 13//8 
f 14//9 12//9 15//9 
f 11//10 13//10 16//10 
f 11//11 16//11 17//11 
f 11//12 17//12 18//12 
f 14//13 15//13 19//13 
f 20//14 21//14 22//14 
f 23//15 24//15 25//15 
f 26//16 27//16 28//16 
f 29//17 30//17 31//17 
f 14//18 19//18 32//18 
f 20//19 22//19 33//19 
f 23//20 25//20 34//20 
f 26//21 28//21 35//21 
f 29//22 31//22 36//22 
f 37//23 38//23 39//23 
f 40//24 41//24 42//24 
f 43//25 44//25 45//25 
f 46//26 47//26 48//26 
f 49//27 50//27 51//27 
f 51//28 48//28 52//28 
f 51//29 50//29 48//29 
f 50//30 46//30 48//30 
f 48//31 45//31 52//31 
f 48//32 47//32 45//32 
f 47//33 43//33 45//33 
f 45//34 42//34 52//34 
f 45//35 44//35 42//35 
f 44//36 40//36 42//36 
f 42//37 39//37 52//37 
f 42//38 41//38 39//38 
f 41//39 37//39 39//39 
f 39//40 51//40 52//40 
f 39//41 38//41 51//41 
f 38//42 49//42 51//42 
f 36//43 50//43 49//43 
f 36//44 31//44 50//44 
f 31//45 46//45 50//45 
f 35//46 47//46 46//46 
f 35//47 28//47 47//47 
f 28//48 43//48 47//48 
f 34//49 44//49 43//49 
f 34//50 25//50 44//50 
f 25//51 40//51 44//51 
f 33//52 41//52 40//52 
f 33//53 22//53 41//53 
f 22//54 37//54 41//54 
f 32//55 38//55 37//55 
f 32//56 19//56 38//56 
f 19//57 49//57 38//57 
f 31//58 35//58 46//58 
f 31//59 30//59 35//59 
f 30//60 26//60 35//60 
f 28//61 34//61 43//61 
f 28//62 27//62 34//62 
f 27//63 23//63 34//63 
f 25//64 33//64 40//64 
f 25//65 24//65 33//65 
f 24//66 20//66 33//66 
f 22//67 32//67 37//67 
f 22//68 21//68 32//68 
f 21//69 14//69 32//69 
f 19//70 36//70 49//70 
f 19//71 15//71 36//71 
f 15//72 29//72 36//72 
f 18//73 30//73 29//73 
f 18//74 17//74 30//74 
f 17//75 26//75 30//75 
f 17//76 27//76 26//76 
f 17//77 16//77 27//77 
f 16//78 23//78 27//78 
f 16//79 24//79 23//79 
f 16//80 13//80 24//80 
f 13//81 20//81 24//81 
f 15//82 18//82 29//82 
f 15//83 12//83 18//83 
f 12//84 11//84 18//84 
f 13//85 21//85 20//85 
f 13//86 12//86 21//86 
f 12//87 14//87 21//87 
# 7 polygons - 82 triangles

